<?xml version="1.0" encoding="utf-8"?>
<!-- Generator: Adobe Illustrator 16.0.0, SVG Export Plug-In . SVG Version: 6.00 Build 0)  -->
<!DOCTYPE svg PUBLIC "-//W3C//DTD SVG 1.1//EN" "http://www.w3.org/Graphics/SVG/1.1/DTD/svg11.dtd">
<svg version="1.1" id="Layer_1" xmlns="http://www.w3.org/2000/svg" xmlns:xlink="http://www.w3.org/1999/xlink" x="0px" y="0px"
	 width="2500px" height="2500px" viewBox="0 0 2500 2500" enable-background="new 0 0 2500 2500" xml:space="preserve">
<g>
	<g>
		<path fill="#FFFFFF" d="M1540.251,1217.42h158.425l-137.79-492.125h-259.24l-145.326,492.125h161.732l26.238-68.908h170.631
			L1540.251,1217.42z M1380.397,1030.37l55.783-180.487l52.515,180.487H1380.397z"/>
		<path fill="#FFFFFF" d="M680.497,1080.498c0-34.318,13.126-56.704-27.21-102.098l-61.386-72.734
			c-35.174-32.813,4.202-32.813,33.747-32.813h202.627v344.555h160.695V872.853h216.582V725.295H504.226
			c-85.328,0-127.052,81.931-124.704,124.588c2.36,42.657,10.207,96.326,81.112,160.799c64.681,58.792-32.021,42.658-41.736,42.658
			H73.525v164.067h479.921C609.229,1217.407,680.497,1165.826,680.497,1080.498z"/>
		<path fill="#FFFFFF" d="M2426.487,1427.452v-147.687h-331.637c-85.289,0-122.175,85.497-119.814,128.154
			s10.207,96.301,81.113,160.773c64.667,58.792-32.022,42.657-41.725,42.657c0,0-151.616-0.155-191.006-0.155
			c-39.376,0-62.877-23.631-62.877-23.631c53.448,0,100.814-77.819,100.814-157.519c0-79.673-77.845-147.557-140.19-147.557
			h-348.771v492.111h177.193v-164.067c0,0,75.484,88.609,114.848,124.704c39.389,36.096,42.656,39.363,96.08,39.363l387.743-2.606
			c55.783,0,140.19-51.581,140.19-136.896c0-34.345,0.648-53.268-39.675-98.661l-61.398-72.748
			c-35.187-32.8-3.009-36.25,26.497-36.25v0.013H2426.487z M1662.075,1495.673h-112.5v-88.609h112.5
			C1713.656,1407.063,1722.566,1495.673,1662.075,1495.673z"/>
		<path fill="#FFFFFF" d="M1937.307,1053.353c0,0,75.458,88.597,114.834,124.691c39.39,36.095,42.657,39.376,96.106,39.376h278.188
			v-164.067c0.025-0.014-153.484-0.014-215.83-0.014s-62.346-22.969-62.346-22.969c53.423,0,100.788-77.832,100.788-157.518
			c0-79.687-77.818-147.558-140.19-147.558h-348.771v492.125h177.22V1053.353z M1937.333,849.883h112.474
			c51.567,0,60.491,88.609,0,88.609h-112.474V849.883z"/>
		<path fill="#FFFFFF" d="M902.565,1282.593l-145.313,492.112h161.72l26.251-68.896h170.643l25.33,68.896h158.439l-137.83-492.112
			H902.565z M981.331,1587.655l55.783-180.487l52.502,180.487H981.331z"/>
		<polygon fill="#FFFFFF" points="632.211,1279.753 582.978,1443.846 533.758,1279.753 343.426,1279.753 300.769,1443.846 
			254.83,1279.753 73.525,1279.753 218.735,1771.994 366.396,1771.994 437.678,1538.992 500.944,1771.994 645.323,1771.994 
			789.716,1279.753 		"/>
	</g>
</g>
</svg>
